<svg width="14" height="16" viewBox="0 0 14 16" fill="none" xmlns="http://www.w3.org/2000/svg">
<path d="M10.5 3.75382H14V11.2614H10.5V12.763C10.5 12.9621 10.5737 13.1531 10.705 13.2938C10.8363 13.4346 11.0143 13.5137 11.2 13.5137H12.6V15.0153H10.85C10.465 15.0153 9.8 14.6774 9.8 14.2645C9.8 14.6774 9.135 15.0153 8.75 15.0153H7V13.5137H8.4C8.58565 13.5137 8.7637 13.4346 8.89497 13.2938C9.02625 13.1531 9.1 12.9621 9.1 12.763V2.25229C9.1 2.05317 9.02625 1.86222 8.89497 1.72142C8.7637 1.58062 8.58565 1.50153 8.4 1.50153H7V0H8.75C9.135 0 9.8 0.337843 9.8 0.750763C9.8 0.337843 10.465 0 10.85 0H12.6V1.50153H11.2C11.0143 1.50153 10.8363 1.58062 10.705 1.72142C10.5737 1.86222 10.5 2.05317 10.5 2.25229V3.75382ZM0 3.75382H7.7V5.25534H1.4V9.75992H7.7V11.2614H0V3.75382ZM12.6 9.75992V5.25534H10.5V9.75992H12.6ZM4.55 7.50763C4.55 7.20896 4.43938 6.92252 4.24246 6.71133C4.04555 6.50013 3.77848 6.38149 3.5 6.38149C3.22152 6.38149 2.95445 6.50013 2.75754 6.71133C2.56062 6.92252 2.45 7.20896 2.45 7.50763C2.45 7.80631 2.56062 8.09274 2.75754 8.30394C2.95445 8.51513 3.22152 8.63378 3.5 8.63378C3.77848 8.63378 4.04555 8.51513 4.24246 8.30394C4.43938 8.09274 4.55 7.80631 4.55 7.50763ZM7.7 6.67429C7.273 6.25386 6.608 6.2914 6.216 6.75687C5.824 7.20733 5.859 7.92055 6.3 8.34098C6.685 8.73138 7.301 8.73138 7.7 8.34098V6.67429Z" fill="#A3A3A3"/>
</svg>
