<svg width="806" height="590" viewBox="0 0 806 590" fill="none" xmlns="http://www.w3.org/2000/svg">
<g clip-path="url(#clip0)">
<rect width="806" height="590" fill="#F0F2F5"/>
<path d="M232.794 188.519C232.779 78.7714 356.065 14.2058 446.265 76.7225L622.789 199.069C706.795 257.292 698.958 383.905 608.412 431.324L431.918 523.755C341.373 571.174 232.837 505.506 232.823 403.295L232.794 188.519Z" fill="url(#paint0_linear)"/>
<g clip-path="url(#clip1)">
<path d="M661.23 382.54C661.23 382.69 565.58 382.82 447.62 382.82C329.62 382.82 233.99 382.7 233.99 382.54C233.99 382.39 329.62 382.26 447.62 382.26C565.59 382.26 661.23 382.39 661.23 382.54Z" fill="#1A2E35"/>
<path d="M339.74 319.01L309.54 288.68L324.72 260.8C339.9 241.37 372.04 242.62 372.04 242.62C372.04 242.62 393.91 240.51 419.43 245.48C444.96 250.45 442.9 267.34 442.9 267.34L446.32 329.91L449.99 380.86L355.84 382.76L339.74 319.01Z" fill="#FF9184"/>
<path d="M390.46 379.82L306.13 380.85C285.87 381.1 272.35 360.03 281.02 341.71L317.08 274.84L349.92 297.04L327.52 343.53L395.79 344.75L390.46 379.82Z" fill="#FF9184"/>
<path d="M439.9 257.18L507.57 361.66L468.09 364.24C468.09 364.24 444.51 327.09 445.05 327.86C446.01 329.24 439.9 257.18 439.9 257.18Z" fill="#FF9184"/>
<path d="M348.23 303.06C348.21 303.06 348.25 302.87 348.32 302.52C348.42 302.12 348.53 301.62 348.68 301.01C348.99 299.7 349.45 297.8 349.92 295.43C350.39 293.07 350.9 290.24 351.24 287.07C351.56 283.91 351.76 280.39 351.28 276.77C350.74 273.16 349.38 269.88 347.79 267.15C346.19 264.41 344.4 262.16 342.77 260.39C341.14 258.62 339.7 257.3 338.67 256.43C337.65 255.55 337.06 255.09 337.09 255.05C337.1 255.04 337.26 255.14 337.55 255.34C337.84 255.55 338.28 255.84 338.8 256.27C339.87 257.1 341.36 258.39 343.04 260.14C344.72 261.89 346.57 264.14 348.21 266.91C349.85 269.67 351.25 273 351.8 276.7C352.29 280.4 352.07 283.95 351.73 287.13C351.36 290.31 350.81 293.15 350.29 295.51C349.77 297.87 349.26 299.76 348.88 301.06C348.69 301.71 348.54 302.21 348.43 302.55C348.31 302.89 348.24 303.06 348.23 303.06Z" stroke="#FF6C63" stroke-width="0.9969" stroke-miterlimit="10"/>
<path d="M345.51 306.66C345.54 306.67 345.33 307.21 344.93 308.17C344.53 309.13 343.92 310.51 343.16 312.2C341.63 315.59 339.46 320.25 336.96 325.35C334.46 330.45 332.1 335.02 330.35 338.3C329.48 339.94 328.76 341.26 328.24 342.17C327.73 343.08 327.43 343.57 327.4 343.55C327.37 343.53 327.61 343.01 328.06 342.07C328.56 341.06 329.22 339.73 330.02 338.12C331.71 334.71 333.98 330.15 336.49 325.1C338.95 320.03 341.17 315.45 342.83 312.02C343.61 310.41 344.26 309.07 344.75 308.06C345.21 307.15 345.48 306.64 345.51 306.66Z" stroke="#FF6C63" stroke-width="0.9969" stroke-miterlimit="10"/>
<path d="M390.46 379.82C390.45 379.82 390.45 379.76 390.46 379.64C390.47 379.5 390.48 379.33 390.5 379.13C390.55 378.65 390.62 377.98 390.7 377.14C390.9 375.36 391.17 372.83 391.53 369.64C392.28 363.18 393.33 354.07 394.57 343.34L394.81 343.61C387.22 343.62 378.78 343.62 369.9 343.63C352.89 343.6 337.5 343.57 326.32 343.55C320.77 343.52 316.27 343.49 313.11 343.47C311.58 343.45 310.38 343.43 309.52 343.42C309.13 343.41 308.82 343.4 308.59 343.39C308.38 343.38 308.27 343.37 308.27 343.36C308.27 343.35 308.38 343.34 308.59 343.33C308.83 343.32 309.14 343.31 309.52 343.3C310.38 343.29 311.58 343.27 313.11 343.25C316.26 343.23 320.77 343.2 326.32 343.17C337.5 343.15 352.89 343.12 369.9 343.09C378.78 343.1 387.22 343.11 394.81 343.11H395.08L395.05 343.38C393.73 354.1 392.62 363.2 391.83 369.66C391.42 372.84 391.1 375.37 390.87 377.15C390.75 377.99 390.66 378.65 390.6 379.13C390.57 379.34 390.54 379.5 390.52 379.64C390.48 379.76 390.47 379.82 390.46 379.82Z" stroke="#FF6C63" stroke-width="0.9969" stroke-miterlimit="10"/>
<path d="M328.11 344.26C328.04 344.3 327.46 343.45 326.43 342.15C325.4 340.86 323.86 339.15 321.93 337.52C320 335.89 318.06 334.66 316.61 333.86C315.16 333.05 314.22 332.63 314.25 332.55C314.27 332.49 315.27 332.8 316.78 333.53C318.29 334.26 320.3 335.46 322.26 337.12C324.22 338.78 325.75 340.56 326.72 341.92C327.7 343.3 328.16 344.23 328.11 344.26Z" stroke="#FF6C63" stroke-width="0.9969" stroke-miterlimit="10"/>
<path d="M447.73 350.88C447.71 350.88 447.67 350.58 447.6 350.02C447.53 349.41 447.44 348.58 447.32 347.53C447.09 345.37 446.78 342.24 446.45 338.36C445.77 330.61 444.98 319.9 444.27 308.05C443.57 296.2 443.08 285.47 442.8 277.7C442.66 273.81 442.56 270.67 442.52 268.5C442.5 267.45 442.49 266.61 442.48 266C442.48 265.43 442.48 265.13 442.5 265.13C442.52 265.13 442.55 265.43 442.58 266C442.61 266.62 442.66 267.45 442.72 268.5C442.83 270.72 442.98 273.85 443.17 277.7C443.55 285.47 444.09 296.19 444.79 308.04C445.49 319.88 446.22 330.6 446.81 338.35C447.11 342.19 447.35 345.31 447.52 347.53C447.6 348.58 447.66 349.41 447.7 350.03C447.74 350.57 447.75 350.87 447.73 350.88Z" stroke="#FF6C63" stroke-width="0.9969" stroke-miterlimit="10"/>
<path d="M393.29 356.09C393.29 356.09 410.12 351.24 415.68 349.82C417.85 349.27 427.14 354.17 433.56 358.24C433.56 358.24 442.4 363.48 441.68 365.1C440.89 366.88 437.63 366.51 432.44 364.07C432.44 364.07 434.25 369.34 430.69 369.22C430.69 369.22 432.46 374.91 429.12 375.5C425.78 376.09 425 368.83 422.05 368.43C419.11 368.04 413.02 367.64 413.02 367.64C413.02 367.64 407.95 376.03 404.03 376.62C400.1 377.21 391.01 376.15 391.01 376.15L393.29 356.09Z" fill="#FBBEB4"/>
<path d="M422 357.25C422.08 357.13 424.18 358.32 426.7 359.91C429.22 361.5 431.2 362.88 431.12 363.01C431.04 363.13 428.94 361.94 426.42 360.35C423.91 358.76 421.93 357.37 422 357.25Z" fill="#FF9A6C"/>
<path d="M421.01 360.48C421.07 360.35 423.57 361.37 426.59 362.77C429.61 364.16 432.01 365.4 431.95 365.53C431.89 365.66 429.39 364.64 426.37 363.24C423.35 361.85 420.95 360.61 421.01 360.48Z" fill="#FF9A6C"/>
<path d="M422.81 368.33C422.83 368.19 424.53 368.3 426.61 368.59C428.69 368.87 430.36 369.22 430.34 369.36C430.32 369.5 428.62 369.39 426.54 369.1C424.46 368.82 422.79 368.47 422.81 368.33Z" fill="#FF9A6C"/>
<path d="M371.4 182.54C371.79 183.83 371.35 185.33 370.32 186.19C369.29 187.06 367.73 187.23 366.53 186.63C364.25 185.47 363.96 182.33 364.41 179.81C364.86 177.29 365.71 174.61 364.66 172.28C363.85 170.5 362.1 169.37 360.74 167.97C358.36 165.53 357.1 161.97 357.68 158.61C358.26 155.25 360.78 152.23 364.06 151.32C367.41 150.38 371.54 151.41 374.03 148.99C375.84 147.23 375.95 144.35 377.35 142.26C379.52 139 384.11 138.49 387.99 139.02C391.87 139.55 395.81 140.79 399.61 139.85C402.78 139.06 405.39 136.85 408.36 135.49C414.8 132.54 423.04 134.14 427.91 139.28C432.79 144.42 433.94 152.73 430.66 159.01C429.48 161.26 427.7 163.31 425.35 164.27" fill="#1A2E35"/>
<path d="M390.7 265.13C401.44 265.12 410.1 256.33 409.96 245.59L409.71 227.21C409.71 227.21 425.15 225.66 426.18 210.36C427.2 195.06 426.46 159.76 426.46 159.76C409.15 151.18 388.55 152.63 372.62 163.57L370.26 165.19L371.41 246.13C371.55 256.68 380.15 265.15 390.7 265.13Z" fill="#FBBEB4"/>
<path d="M422.39 187.47C419.67 186.93 419.69 183.42 422.42 182.92C422.54 182.9 422.67 182.9 422.79 182.92C425.51 183.46 425.49 186.97 422.76 187.47C422.65 187.49 422.51 187.49 422.39 187.47Z" fill="#1A2E35"/>
<path d="M425.4 182.58C425.15 182.83 423.71 181.59 421.6 181.47C419.49 181.31 417.9 182.35 417.68 182.07C417.57 181.94 417.84 181.48 418.53 181.01C419.21 180.54 420.36 180.12 421.68 180.2C422.99 180.29 424.08 180.86 424.69 181.42C425.32 181.98 425.52 182.47 425.4 182.58Z" fill="#1A2E35"/>
<path d="M401 183.1C402.01 183.8 402.26 185.19 401.56 186.2C400.86 187.21 399.47 187.46 398.46 186.76C397.45 186.06 397.2 184.67 397.9 183.66C398.6 182.65 399.99 182.4 401 183.1Z" fill="#1A2E35"/>
<path d="M402.39 183.19C402.14 183.44 400.7 182.2 398.59 182.08C396.48 181.92 394.89 182.96 394.67 182.68C394.56 182.55 394.83 182.09 395.52 181.62C396.2 181.15 397.35 180.73 398.67 180.81C399.98 180.9 401.07 181.47 401.68 182.03C402.31 182.59 402.51 183.08 402.39 183.19Z" fill="#1A2E35"/>
<path d="M409.9 201.05C409.89 200.88 411.21 200.69 413.35 200.51C413.91 200.48 414.34 200.38 414.4 200.08C414.52 199.75 414.34 199.15 414.09 198.48C413.62 197.06 413.15 195.61 412.66 194.1C410.69 187.87 409.35 182.74 409.66 182.64C409.98 182.54 411.83 187.51 413.8 193.74C414.26 195.26 414.71 196.71 415.14 198.14C415.31 198.79 415.65 199.55 415.32 200.45C415.14 200.9 414.69 201.2 414.32 201.28C413.95 201.37 413.64 201.35 413.37 201.35C411.23 201.32 409.9 201.22 409.9 201.05Z" fill="#1A2E35"/>
<path d="M402.92 203.01C405.62 204.26 408.84 205.82 413.1 206.58C413.1 206.58 410.42 210.38 406.1 208.52C401.6 206.59 402.92 203.01 402.92 203.01Z" fill="white"/>
<path d="M409.74 226.99C409.74 226.99 400.02 227.25 390.09 220.23C390.09 220.23 394.21 231.51 409.56 230.96L409.74 226.99Z" fill="black"/>
<path d="M426.56 163.62C426.56 163.62 417.32 168.32 405.06 162.49C397.02 158.67 387.69 156.91 385.68 158.55C383.66 160.19 383.39 168.41 375.55 170.96C375.55 170.96 376.4 186.61 370.14 186.17C363.88 185.73 367.32 161.4 367.32 161.4L382.45 153.64L399.06 150.17L414.81 152.08L427.03 155.17L426.56 163.62Z" fill="#1A2E35"/>
<path d="M371.27 181.15C371.02 181.02 360.92 177.46 360.68 187.95C360.44 198.44 371.02 196.51 371.05 196.21C371.08 195.91 371.27 181.15 371.27 181.15Z" fill="#FBBEB4"/>
<path d="M367.94 192.16C367.89 192.13 367.75 192.28 367.44 192.42C367.14 192.55 366.62 192.63 366.07 192.42C364.97 191.99 364.08 190.21 364.07 188.32C364.06 187.36 364.28 186.46 364.64 185.72C364.98 184.96 365.49 184.44 366.05 184.35C366.61 184.23 367 184.58 367.12 184.88C367.25 185.18 367.18 185.38 367.24 185.4C367.27 185.43 367.47 185.23 367.39 184.79C367.35 184.58 367.23 184.33 366.99 184.12C366.74 183.91 366.38 183.8 365.99 183.83C365.18 183.87 364.44 184.6 364.05 185.41C363.62 186.23 363.35 187.25 363.35 188.32C363.37 190.43 364.41 192.44 365.91 192.91C366.64 193.12 367.26 192.91 367.59 192.67C367.91 192.42 367.97 192.18 367.94 192.16Z" fill="#FF9A6C"/>
<path d="M365.93 148.32C365.87 148.2 367.59 147.71 369.57 148.45C371.55 149.18 372.53 150.68 372.41 150.73C372.3 150.84 371.22 149.6 369.39 148.94C367.57 148.25 365.95 148.48 365.93 148.32Z" fill="#1A2E35"/>
<path d="M372.24 142.04C372.42 142.05 372.14 144.25 372.5 146.87C372.86 149.52 374.1 151.36 373.96 151.44C373.91 151.48 373.53 151.07 373.08 150.28C372.64 149.5 372.17 148.31 371.98 146.95C371.61 144.21 372.14 142.02 372.24 142.04Z" fill="#1A2E35"/>
<path d="M415.33 177.55C415.27 177.43 415.72 177.07 416.57 176.72C417.42 176.37 418.68 176.08 420.09 176.09C421.5 176.11 422.75 176.43 423.59 176.79C424.43 177.15 424.88 177.52 424.82 177.65C424.69 177.93 422.67 177.14 420.08 177.13C417.49 177.08 415.45 177.83 415.33 177.55Z" fill="#1A2E35"/>
<path d="M391.95 175.34C391.89 175.22 392.34 174.86 393.19 174.51C394.04 174.16 395.3 173.87 396.71 173.88C398.12 173.9 399.37 174.22 400.21 174.58C401.05 174.94 401.5 175.31 401.44 175.44C401.31 175.72 399.29 174.93 396.7 174.92C394.1 174.87 392.07 175.62 391.95 175.34Z" fill="#1A2E35"/>
<path d="M413.52 179.2C413.53 179.21 413.55 179.43 413.56 179.82C413.57 180.26 413.59 180.82 413.61 181.51C413.63 182.25 413.64 183.13 413.66 184.14C413.66 185.15 413.72 186.33 414.16 187.54C414.58 188.74 415.3 189.98 416.37 191.03C417.45 192.06 418.86 192.92 420.5 193.3C421.32 193.49 422.18 193.59 423.06 193.52C423.94 193.48 424.83 193.3 425.68 192.97C427.39 192.34 428.94 191.11 429.99 189.48C430.99 187.93 431.44 186.12 431.4 184.36C431.4 182.57 431.41 180.84 431.41 179.19L431.65 179.43C426.41 179.38 421.93 179.34 418.67 179.31C417.11 179.28 415.85 179.26 414.9 179.24C414.5 179.23 414.16 179.22 413.88 179.21C413.66 179.22 413.53 179.21 413.52 179.2C413.5 179.18 413.95 179.16 414.81 179.14C415.74 179.12 416.98 179.1 418.52 179.07C421.81 179.04 426.35 179 431.66 178.95H431.9V179.19C431.9 180.84 431.91 182.57 431.91 184.36C431.97 186.18 431.49 188.13 430.43 189.76C429.32 191.48 427.67 192.79 425.86 193.44C424.96 193.79 424.02 193.97 423.09 194.01C422.16 194.07 421.25 193.97 420.39 193.76C418.66 193.35 417.18 192.43 416.07 191.33C414.96 190.21 414.23 188.91 413.81 187.64C413.38 186.37 413.34 185.15 413.37 184.1C413.39 183.07 413.41 182.17 413.42 181.41C413.44 180.73 413.46 180.18 413.47 179.74C413.5 179.37 413.51 179.18 413.52 179.2Z" fill="#1A2E35"/>
<path d="M389.01 178.68C389.02 178.69 389.04 178.91 389.05 179.3C389.06 179.74 389.08 180.3 389.1 180.99C389.12 181.73 389.13 182.61 389.15 183.62C389.15 184.63 389.21 185.81 389.65 187.02C390.07 188.22 390.79 189.46 391.86 190.51C392.94 191.54 394.35 192.4 395.99 192.78C396.81 192.97 397.67 193.07 398.55 193C399.43 192.96 400.32 192.78 401.17 192.45C402.88 191.82 404.43 190.59 405.48 188.96C406.48 187.41 406.93 185.6 406.89 183.84C406.89 182.05 406.9 180.32 406.9 178.67L407.14 178.91C401.9 178.86 397.42 178.82 394.16 178.79C392.6 178.76 391.34 178.74 390.39 178.72C389.99 178.71 389.65 178.7 389.37 178.69C389.14 178.7 389.02 178.69 389.01 178.68C388.99 178.66 389.44 178.64 390.3 178.62C391.23 178.6 392.47 178.58 394.01 178.55C397.3 178.52 401.84 178.48 407.15 178.43H407.39V178.67C407.39 180.32 407.4 182.05 407.4 183.84C407.46 185.66 406.98 187.61 405.92 189.24C404.81 190.96 403.16 192.27 401.35 192.92C400.45 193.27 399.51 193.45 398.58 193.49C397.65 193.55 396.74 193.45 395.88 193.24C394.15 192.83 392.67 191.91 391.56 190.81C390.45 189.69 389.72 188.39 389.3 187.12C388.87 185.85 388.83 184.63 388.86 183.58C388.88 182.55 388.9 181.65 388.91 180.89C388.93 180.21 388.95 179.66 388.96 179.22C388.98 178.86 388.99 178.67 389.01 178.68Z" fill="#1A2E35"/>
<path d="M413.74 179.92C413.74 180.06 412.19 180.18 410.29 180.18C408.38 180.18 406.84 180.06 406.84 179.92C406.84 179.78 408.39 179.66 410.29 179.66C412.2 179.66 413.74 179.78 413.74 179.92Z" fill="#1A2E35"/>
<path d="M369.89 180.06C369.89 179.92 374.17 179.79 379.45 179.77C384.73 179.75 389.01 179.86 389.01 180C389.01 180.14 384.73 180.27 379.45 180.29C374.17 180.31 369.89 180.21 369.89 180.06Z" fill="#1A2E35"/>
<path d="M562.02 192.48L532.25 181.79L502.77 192.34C499.01 194.12 495.71 195.18 495.71 198.69V216.15C495.71 228.27 498.89 240.29 505.42 250.89C510.92 259.81 519.43 269 532.54 274.84C544.59 270.93 553.58 260.49 559.08 251.57C565.61 240.96 568.79 228.95 568.79 216.83V201.13C568.8 196.13 566.15 193.69 562.02 192.48Z" fill="#FF4F5B"/>
<g opacity="0.3">
<path opacity="0.3" d="M532.54 264.71C522.17 260.09 515.43 252.66 511.08 245.6C505.91 237.21 503.4 227.71 503.4 218.11V205.87C503.4 203.1 505.07 200.5 508.4 198.95L532.26 190.03L532.25 181.8L502.77 192.35C499.68 193.7 495.71 195.19 495.71 198.7V216.16C495.71 228.28 498.89 240.3 505.42 250.9C510.92 259.82 519.43 269.01 532.54 274.85V264.71Z" fill="black"/>
</g>
<g opacity="0.4">
<path opacity="0.4" d="M532.54 274.84C534.63 274.14 536.55 273.34 538.39 272.33C543.33 269.64 547.55 265.94 550.77 262.59C554.37 258.85 557.05 254.8 559.38 251.02C565.91 240.41 569.09 228.4 568.8 215.95L568.82 201.54C568.8 194.36 565.12 193.83 562.03 192.48L532.26 181.79L532.27 190.02L556.41 199.09C559.73 200.64 561.41 203.24 561.41 206.01V218.25C561.41 227.84 558.9 237.34 553.73 245.74C549.38 252.8 542.93 260.08 532.56 264.7V274.84H532.54Z" fill="black"/>
</g>
<path opacity="0.5" d="M540.15 217.33L540.18 214.97C540.18 210.71 536.71 207.24 532.45 207.24C528.19 207.24 524.72 210.71 524.72 214.96L524.69 217.36C522.6 217.67 521 219.46 521 221.63V235.53C521 237.92 522.94 239.86 525.33 239.86H539.76C542.15 239.86 544.09 237.92 544.09 235.53V221.63C544.08 219.38 542.35 217.53 540.15 217.33ZM534.52 232.07H530.75L531.34 229.35C530.69 228.94 530.25 228.22 530.25 227.4C530.25 226.13 531.28 225.1 532.55 225.1C533.82 225.1 534.85 226.13 534.85 227.4C534.85 228.2 534.45 228.9 533.83 229.31C534.09 230.36 534.52 232.07 534.52 232.07ZM538.49 217.31H526.36L526.39 214.97C526.39 211.63 529.11 208.91 532.45 208.91C535.79 208.91 538.51 211.63 538.51 214.96L538.49 217.31Z" fill="white"/>
<path d="M477.26 296.74L444.06 378.83H384.21V382.54H562.48L598.95 296.74H477.26Z" fill="#C8C8C8"/>
<path d="M527.99 345.21C526.79 349.34 523.29 351.95 520.17 351.05C517.05 350.14 515.5 346.06 516.7 341.93C517.9 337.8 521.41 335.19 524.52 336.09C527.64 336.99 529.2 341.08 527.99 345.21Z" fill="#FAFAFA"/>
</g>
</g>
<defs>
<linearGradient id="paint0_linear" x1="125.016" y1="-71.5633" x2="945.774" y2="420.924" gradientUnits="userSpaceOnUse">
<stop stop-color="#FFE074"/>
<stop offset="1" stop-color="#FFF7DB"/>
</linearGradient>
<clipPath id="clip0">
<rect width="806" height="590" fill="white"/>
</clipPath>
<clipPath id="clip1">
<rect x="234" y="134" width="427.23" height="248.81" fill="white"/>
</clipPath>
</defs>
</svg>
