<svg width="806" height="590" viewBox="0 0 806 590" fill="none" xmlns="http://www.w3.org/2000/svg">
<path d="M164.794 234.519C164.779 124.771 288.065 60.2058 378.265 122.723L554.789 245.069C638.795 303.292 630.958 429.905 540.412 477.324L363.918 569.755C273.373 617.174 164.837 551.506 164.823 449.295L164.794 234.519Z" fill="url(#paint0_linear)"/>
<g clip-path="url(#clip0)">
<path d="M597.23 411.54C597.23 411.69 501.58 411.821 383.62 411.821C265.62 411.821 169.99 411.7 169.99 411.54C169.99 411.39 265.62 411.26 383.62 411.26C501.59 411.26 597.23 411.39 597.23 411.54Z" fill="#1A2E35"/>
<path d="M275.74 348.01L245.54 317.68L260.72 289.8C275.9 270.37 308.04 271.62 308.04 271.62C308.04 271.62 329.91 269.51 355.43 274.48C380.96 279.45 378.9 296.34 378.9 296.34L382.32 358.91L385.99 409.86L291.84 411.76L275.74 348.01Z" fill="#FF9184"/>
<path d="M326.46 408.82L242.13 409.85C221.87 410.1 208.35 389.03 217.02 370.71L253.08 303.84L285.92 326.04L263.52 372.53L331.79 373.75L326.46 408.82Z" fill="#FF9184"/>
<path d="M375.9 286.18L443.57 390.66L404.09 393.24C404.09 393.24 380.51 356.09 381.05 356.86C382.01 358.24 375.9 286.18 375.9 286.18Z" fill="#FF9184"/>
<path d="M284.23 332.06C284.21 332.06 284.25 331.87 284.32 331.52C284.42 331.12 284.53 330.62 284.68 330.01C284.99 328.7 285.45 326.8 285.92 324.43C286.39 322.07 286.9 319.24 287.24 316.07C287.56 312.91 287.76 309.39 287.28 305.77C286.74 302.16 285.38 298.88 283.79 296.15C282.19 293.41 280.4 291.16 278.77 289.39C277.14 287.62 275.7 286.3 274.67 285.43C273.65 284.55 273.06 284.09 273.09 284.05C273.1 284.04 273.26 284.14 273.55 284.34C273.84 284.55 274.28 284.84 274.8 285.27C275.87 286.1 277.36 287.39 279.04 289.14C280.72 290.89 282.57 293.14 284.21 295.91C285.85 298.67 287.25 302 287.8 305.7C288.29 309.4 288.07 312.95 287.73 316.13C287.36 319.31 286.81 322.15 286.29 324.51C285.77 326.87 285.26 328.76 284.88 330.06C284.69 330.71 284.54 331.21 284.43 331.55C284.31 331.89 284.24 332.06 284.23 332.06Z" stroke="#FF6C63" stroke-width="0.9969" stroke-miterlimit="10"/>
<path d="M281.51 335.66C281.54 335.67 281.33 336.21 280.93 337.17C280.53 338.13 279.92 339.51 279.16 341.2C277.63 344.59 275.46 349.25 272.96 354.35C270.46 359.45 268.1 364.02 266.35 367.3C265.48 368.94 264.76 370.26 264.24 371.17C263.73 372.08 263.43 372.57 263.4 372.55C263.37 372.53 263.61 372.01 264.06 371.07C264.56 370.06 265.22 368.73 266.02 367.12C267.71 363.71 269.98 359.15 272.49 354.1C274.95 349.03 277.17 344.45 278.83 341.02C279.61 339.41 280.26 338.07 280.75 337.06C281.21 336.15 281.48 335.64 281.51 335.66Z" stroke="#FF6C63" stroke-width="0.9969" stroke-miterlimit="10"/>
<path d="M326.46 408.82C326.45 408.82 326.45 408.76 326.46 408.64C326.47 408.5 326.48 408.33 326.5 408.13C326.55 407.65 326.62 406.98 326.7 406.14C326.9 404.36 327.17 401.83 327.53 398.64C328.28 392.18 329.33 383.07 330.57 372.34L330.81 372.61C323.22 372.62 314.78 372.62 305.9 372.63C288.89 372.6 273.5 372.57 262.32 372.55C256.77 372.52 252.27 372.49 249.11 372.47C247.58 372.45 246.38 372.43 245.52 372.42C245.13 372.41 244.82 372.4 244.59 372.39C244.38 372.38 244.27 372.37 244.27 372.36C244.27 372.35 244.38 372.34 244.59 372.33C244.83 372.32 245.14 372.31 245.52 372.3C246.38 372.29 247.58 372.27 249.11 372.25C252.26 372.23 256.77 372.2 262.32 372.17C273.5 372.15 288.89 372.12 305.9 372.09C314.78 372.1 323.22 372.11 330.81 372.11H331.08L331.05 372.38C329.73 383.1 328.62 392.2 327.83 398.66C327.42 401.84 327.1 404.37 326.87 406.15C326.75 406.99 326.66 407.65 326.6 408.13C326.57 408.34 326.54 408.5 326.52 408.64C326.48 408.76 326.47 408.82 326.46 408.82Z" stroke="#FF6C63" stroke-width="0.9969" stroke-miterlimit="10"/>
<path d="M264.11 373.26C264.04 373.3 263.46 372.45 262.43 371.15C261.4 369.86 259.86 368.15 257.93 366.52C256 364.89 254.06 363.66 252.61 362.86C251.16 362.05 250.22 361.63 250.25 361.55C250.27 361.49 251.27 361.8 252.78 362.53C254.29 363.26 256.3 364.46 258.26 366.12C260.22 367.78 261.75 369.56 262.72 370.92C263.7 372.3 264.16 373.23 264.11 373.26Z" stroke="#FF6C63" stroke-width="0.9969" stroke-miterlimit="10"/>
<path d="M383.73 379.88C383.71 379.88 383.67 379.58 383.6 379.02C383.53 378.41 383.44 377.58 383.32 376.53C383.09 374.37 382.78 371.24 382.45 367.36C381.77 359.61 380.98 348.9 380.27 337.05C379.57 325.2 379.08 314.47 378.8 306.7C378.66 302.81 378.56 299.67 378.52 297.5C378.5 296.45 378.49 295.61 378.48 295C378.48 294.43 378.48 294.13 378.5 294.13C378.52 294.13 378.55 294.43 378.58 295C378.61 295.62 378.66 296.45 378.72 297.5C378.83 299.72 378.98 302.85 379.17 306.7C379.55 314.47 380.09 325.19 380.79 337.04C381.49 348.88 382.22 359.6 382.81 367.35C383.11 371.19 383.35 374.31 383.52 376.53C383.6 377.58 383.66 378.41 383.7 379.03C383.74 379.57 383.75 379.87 383.73 379.88Z" stroke="#FF6C63" stroke-width="0.9969" stroke-miterlimit="10"/>
<path d="M329.29 385.09C329.29 385.09 346.12 380.24 351.68 378.82C353.85 378.27 363.14 383.17 369.56 387.24C369.56 387.24 378.4 392.48 377.68 394.1C376.89 395.88 373.63 395.51 368.44 393.07C368.44 393.07 370.25 398.34 366.69 398.22C366.69 398.22 368.46 403.91 365.12 404.5C361.78 405.09 361 397.83 358.05 397.43C355.11 397.04 349.02 396.64 349.02 396.64C349.02 396.64 343.95 405.03 340.03 405.62C336.1 406.21 327.01 405.15 327.01 405.15L329.29 385.09Z" fill="#FBBEB4"/>
<path d="M358 386.25C358.08 386.13 360.18 387.32 362.7 388.91C365.22 390.5 367.2 391.88 367.12 392.01C367.04 392.13 364.94 390.94 362.42 389.35C359.91 387.76 357.93 386.37 358 386.25Z" fill="#FF9A6C"/>
<path d="M357.01 389.48C357.07 389.35 359.57 390.37 362.59 391.77C365.61 393.16 368.01 394.4 367.95 394.53C367.89 394.66 365.39 393.64 362.37 392.24C359.35 390.85 356.95 389.61 357.01 389.48Z" fill="#FF9A6C"/>
<path d="M358.81 397.33C358.83 397.19 360.53 397.3 362.61 397.59C364.69 397.87 366.36 398.22 366.34 398.36C366.32 398.5 364.62 398.39 362.54 398.1C360.46 397.82 358.79 397.47 358.81 397.33Z" fill="#FF9A6C"/>
<path d="M307.4 211.54C307.79 212.83 307.35 214.33 306.32 215.19C305.29 216.06 303.73 216.23 302.53 215.63C300.25 214.47 299.96 211.33 300.41 208.81C300.86 206.29 301.71 203.61 300.66 201.28C299.85 199.5 298.1 198.37 296.74 196.97C294.36 194.53 293.1 190.97 293.68 187.61C294.26 184.25 296.78 181.23 300.06 180.32C303.41 179.38 307.54 180.41 310.03 177.99C311.84 176.23 311.95 173.35 313.35 171.26C315.52 168 320.11 167.49 323.99 168.02C327.87 168.55 331.81 169.79 335.61 168.85C338.78 168.06 341.39 165.85 344.36 164.49C350.8 161.54 359.04 163.14 363.91 168.28C368.79 173.42 369.94 181.73 366.66 188.01C365.48 190.26 363.7 192.31 361.35 193.27" fill="#1A2E35"/>
<path d="M326.7 294.13C337.44 294.12 346.1 285.33 345.96 274.59L345.71 256.21C345.71 256.21 361.15 254.66 362.18 239.36C363.2 224.06 362.46 188.76 362.46 188.76C345.15 180.18 324.55 181.63 308.62 192.57L306.26 194.19L307.41 275.13C307.55 285.68 316.15 294.15 326.7 294.13Z" fill="#FBBEB4"/>
<path d="M358.39 216.47C355.67 215.93 355.69 212.42 358.42 211.92C358.54 211.9 358.67 211.9 358.79 211.92C361.51 212.46 361.49 215.97 358.76 216.47C358.65 216.49 358.51 216.49 358.39 216.47Z" fill="#1A2E35"/>
<path d="M361.4 211.58C361.15 211.83 359.71 210.59 357.6 210.47C355.49 210.31 353.9 211.35 353.68 211.07C353.57 210.94 353.84 210.48 354.53 210.01C355.21 209.54 356.36 209.12 357.68 209.2C358.99 209.29 360.08 209.86 360.69 210.42C361.32 210.98 361.52 211.47 361.4 211.58Z" fill="#1A2E35"/>
<path d="M337 212.101C338.01 212.801 338.26 214.191 337.56 215.201C336.86 216.211 335.47 216.461 334.46 215.761C333.45 215.061 333.2 213.671 333.9 212.661C334.6 211.651 335.99 211.401 337 212.101Z" fill="#1A2E35"/>
<path d="M338.39 212.191C338.14 212.441 336.7 211.201 334.59 211.081C332.48 210.921 330.89 211.961 330.67 211.681C330.56 211.551 330.83 211.091 331.52 210.621C332.2 210.151 333.35 209.731 334.67 209.811C335.98 209.901 337.07 210.471 337.68 211.031C338.31 211.591 338.51 212.081 338.39 212.191Z" fill="#1A2E35"/>
<path d="M345.9 230.05C345.89 229.88 347.21 229.69 349.35 229.51C349.91 229.48 350.34 229.38 350.4 229.08C350.52 228.75 350.34 228.15 350.09 227.48C349.62 226.06 349.15 224.61 348.66 223.1C346.69 216.87 345.35 211.74 345.66 211.64C345.98 211.54 347.83 216.51 349.8 222.74C350.26 224.26 350.71 225.71 351.14 227.14C351.31 227.79 351.65 228.55 351.32 229.45C351.14 229.9 350.69 230.2 350.32 230.28C349.95 230.37 349.64 230.35 349.37 230.35C347.23 230.32 345.9 230.22 345.9 230.05Z" fill="#1A2E35"/>
<path d="M338.92 232.01C341.62 233.26 344.84 234.82 349.1 235.58C349.1 235.58 346.42 239.38 342.1 237.52C337.6 235.59 338.92 232.01 338.92 232.01Z" fill="white"/>
<path d="M345.74 255.99C345.74 255.99 336.02 256.25 326.09 249.23C326.09 249.23 330.21 260.51 345.56 259.96L345.74 255.99Z" fill="black"/>
<path d="M362.56 192.62C362.56 192.62 353.32 197.32 341.06 191.49C333.02 187.67 323.69 185.91 321.68 187.55C319.66 189.19 319.39 197.41 311.55 199.96C311.55 199.96 312.4 215.61 306.14 215.17C299.88 214.73 303.32 190.4 303.32 190.4L318.45 182.64L335.06 179.17L350.81 181.08L363.03 184.17L362.56 192.62Z" fill="#1A2E35"/>
<path d="M307.27 210.15C307.02 210.02 296.92 206.46 296.68 216.95C296.44 227.44 307.02 225.51 307.05 225.21C307.08 224.91 307.27 210.15 307.27 210.15Z" fill="#FBBEB4"/>
<path d="M303.94 221.16C303.89 221.13 303.75 221.28 303.44 221.42C303.14 221.55 302.62 221.63 302.07 221.42C300.97 220.99 300.08 219.21 300.07 217.32C300.06 216.36 300.28 215.46 300.64 214.72C300.98 213.96 301.49 213.44 302.05 213.35C302.61 213.23 303 213.58 303.12 213.88C303.25 214.18 303.18 214.38 303.24 214.4C303.27 214.43 303.47 214.23 303.39 213.79C303.35 213.58 303.23 213.33 302.99 213.12C302.74 212.91 302.38 212.8 301.99 212.83C301.18 212.87 300.44 213.6 300.05 214.41C299.62 215.23 299.35 216.25 299.35 217.32C299.37 219.43 300.41 221.44 301.91 221.91C302.64 222.12 303.26 221.91 303.59 221.67C303.91 221.42 303.97 221.18 303.94 221.16Z" fill="#FF9A6C"/>
<path d="M301.93 177.32C301.87 177.2 303.59 176.71 305.57 177.45C307.55 178.18 308.53 179.68 308.41 179.73C308.3 179.84 307.22 178.6 305.39 177.94C303.57 177.25 301.95 177.48 301.93 177.32Z" fill="#1A2E35"/>
<path d="M308.24 171.04C308.42 171.05 308.14 173.25 308.5 175.87C308.86 178.52 310.1 180.36 309.96 180.44C309.91 180.48 309.53 180.07 309.08 179.28C308.64 178.5 308.17 177.31 307.98 175.95C307.61 173.21 308.14 171.02 308.24 171.04Z" fill="#1A2E35"/>
<path d="M351.33 206.55C351.27 206.43 351.72 206.07 352.57 205.72C353.42 205.37 354.68 205.08 356.09 205.09C357.5 205.11 358.75 205.43 359.59 205.79C360.43 206.15 360.88 206.52 360.82 206.65C360.69 206.93 358.67 206.14 356.08 206.13C353.49 206.08 351.45 206.83 351.33 206.55Z" fill="#1A2E35"/>
<path d="M327.95 204.34C327.89 204.22 328.34 203.86 329.19 203.51C330.04 203.16 331.3 202.871 332.71 202.881C334.12 202.901 335.37 203.221 336.21 203.581C337.05 203.941 337.5 204.31 337.44 204.44C337.31 204.72 335.29 203.93 332.7 203.92C330.1 203.87 328.07 204.62 327.95 204.34Z" fill="#1A2E35"/>
<path d="M349.52 208.201C349.53 208.211 349.55 208.43 349.56 208.82C349.57 209.26 349.59 209.82 349.61 210.51C349.63 211.25 349.64 212.13 349.66 213.14C349.66 214.15 349.72 215.331 350.16 216.541C350.58 217.741 351.3 218.98 352.37 220.03C353.45 221.06 354.86 221.92 356.5 222.3C357.32 222.49 358.18 222.591 359.06 222.521C359.94 222.481 360.83 222.301 361.68 221.971C363.39 221.341 364.94 220.11 365.99 218.48C366.99 216.93 367.44 215.121 367.4 213.361C367.4 211.571 367.41 209.84 367.41 208.19L367.65 208.431C362.41 208.381 357.93 208.341 354.67 208.311C353.11 208.281 351.85 208.261 350.9 208.241C350.5 208.231 350.16 208.22 349.88 208.21C349.66 208.22 349.53 208.211 349.52 208.201C349.5 208.181 349.95 208.16 350.81 208.14C351.74 208.12 352.98 208.1 354.52 208.07C357.81 208.04 362.35 208.001 367.66 207.951H367.9V208.19C367.9 209.84 367.91 211.571 367.91 213.361C367.97 215.181 367.49 217.13 366.43 218.76C365.32 220.48 363.67 221.79 361.86 222.44C360.96 222.79 360.02 222.97 359.09 223.01C358.16 223.07 357.25 222.97 356.39 222.76C354.66 222.35 353.18 221.431 352.07 220.331C350.96 219.211 350.23 217.91 349.81 216.64C349.38 215.37 349.34 214.15 349.37 213.1C349.39 212.07 349.41 211.17 349.42 210.41C349.44 209.73 349.46 209.181 349.47 208.741C349.5 208.371 349.51 208.181 349.52 208.201Z" fill="#1A2E35"/>
<path d="M325.01 207.68C325.02 207.69 325.04 207.91 325.05 208.3C325.06 208.74 325.08 209.3 325.1 209.99C325.12 210.73 325.13 211.61 325.15 212.62C325.15 213.63 325.21 214.81 325.65 216.02C326.07 217.22 326.79 218.46 327.86 219.51C328.94 220.54 330.35 221.4 331.99 221.78C332.81 221.97 333.67 222.07 334.55 222C335.43 221.96 336.32 221.78 337.17 221.45C338.88 220.82 340.43 219.59 341.48 217.96C342.48 216.41 342.93 214.6 342.89 212.84C342.89 211.05 342.9 209.32 342.9 207.67L343.14 207.91C337.9 207.86 333.42 207.82 330.16 207.79C328.6 207.76 327.34 207.74 326.39 207.72C325.99 207.71 325.65 207.7 325.37 207.69C325.14 207.7 325.02 207.69 325.01 207.68C324.99 207.66 325.44 207.64 326.3 207.62C327.23 207.6 328.47 207.58 330.01 207.55C333.3 207.52 337.84 207.48 343.15 207.43H343.39V207.67C343.39 209.32 343.4 211.05 343.4 212.84C343.46 214.66 342.98 216.61 341.92 218.24C340.81 219.96 339.16 221.27 337.35 221.92C336.45 222.27 335.51 222.45 334.58 222.49C333.65 222.55 332.74 222.45 331.88 222.24C330.15 221.83 328.67 220.91 327.56 219.81C326.45 218.69 325.72 217.39 325.3 216.12C324.87 214.85 324.83 213.63 324.86 212.58C324.88 211.55 324.9 210.65 324.91 209.89C324.93 209.21 324.95 208.66 324.96 208.22C324.98 207.86 324.99 207.67 325.01 207.68Z" fill="#1A2E35"/>
<path d="M349.74 208.92C349.74 209.06 348.19 209.18 346.29 209.18C344.38 209.18 342.84 209.06 342.84 208.92C342.84 208.78 344.39 208.66 346.29 208.66C348.2 208.66 349.74 208.78 349.74 208.92Z" fill="#1A2E35"/>
<path d="M305.89 209.06C305.89 208.92 310.17 208.79 315.45 208.77C320.73 208.75 325.01 208.86 325.01 209C325.01 209.14 320.73 209.27 315.45 209.29C310.17 209.31 305.89 209.21 305.89 209.06Z" fill="#1A2E35"/>
<path d="M498.02 221.48L468.25 210.79L438.77 221.34C435.01 223.12 431.71 224.18 431.71 227.69V245.15C431.71 257.27 434.89 269.29 441.42 279.89C446.92 288.81 455.43 298 468.54 303.84C480.59 299.93 489.58 289.49 495.08 280.57C501.61 269.96 504.79 257.95 504.79 245.83V230.13C504.8 225.13 502.15 222.69 498.02 221.48Z" fill="#FF4F5B"/>
<g opacity="0.3">
<path opacity="0.3" d="M468.54 293.71C458.17 289.09 451.43 281.66 447.08 274.6C441.91 266.21 439.4 256.71 439.4 247.11V234.87C439.4 232.1 441.07 229.5 444.4 227.95L468.26 219.03L468.25 210.8L438.77 221.35C435.68 222.7 431.71 224.19 431.71 227.7V245.16C431.71 257.28 434.89 269.3 441.42 279.9C446.92 288.82 455.43 298.01 468.54 303.85V293.71Z" fill="black"/>
</g>
<g opacity="0.4">
<path opacity="0.4" d="M468.54 303.84C470.63 303.14 472.55 302.34 474.39 301.33C479.33 298.64 483.55 294.94 486.77 291.59C490.37 287.85 493.05 283.8 495.38 280.02C501.91 269.41 505.09 257.4 504.8 244.95L504.82 230.54C504.8 223.36 501.12 222.83 498.03 221.48L468.26 210.79L468.27 219.02L492.41 228.09C495.73 229.64 497.41 232.24 497.41 235.01V247.25C497.41 256.84 494.9 266.34 489.73 274.74C485.38 281.8 478.93 289.08 468.56 293.7V303.84H468.54Z" fill="black"/>
</g>
<path opacity="0.5" d="M476.15 246.33L476.18 243.97C476.18 239.71 472.71 236.24 468.45 236.24C464.19 236.24 460.72 239.71 460.72 243.96L460.69 246.36C458.6 246.67 457 248.46 457 250.63V264.53C457 266.92 458.94 268.86 461.33 268.86H475.76C478.15 268.86 480.09 266.92 480.09 264.53V250.63C480.08 248.38 478.35 246.53 476.15 246.33ZM470.52 261.07H466.75L467.34 258.35C466.69 257.94 466.25 257.22 466.25 256.4C466.25 255.13 467.28 254.1 468.55 254.1C469.82 254.1 470.85 255.13 470.85 256.4C470.85 257.2 470.45 257.9 469.83 258.31C470.09 259.36 470.52 261.07 470.52 261.07ZM474.49 246.31H462.36L462.39 243.97C462.39 240.63 465.11 237.91 468.45 237.91C471.79 237.91 474.51 240.63 474.51 243.96L474.49 246.31Z" fill="white"/>
<path d="M413.26 325.74L380.06 407.83H320.21V411.54H498.48L534.95 325.74H413.26Z" fill="#C8C8C8"/>
<path d="M463.99 374.21C462.79 378.34 459.29 380.95 456.17 380.05C453.05 379.14 451.5 375.06 452.7 370.93C453.9 366.8 457.41 364.19 460.52 365.09C463.64 365.99 465.2 370.08 463.99 374.21Z" fill="#FAFAFA"/>
</g>
<defs>
<linearGradient id="paint0_linear" x1="57.0157" y1="-25.5633" x2="877.774" y2="466.924" gradientUnits="userSpaceOnUse">
<stop stop-color="#FFE074"/>
<stop offset="1" stop-color="#FFF7DB"/>
</linearGradient>
<clipPath id="clip0">
<rect x="170" y="163" width="427.23" height="248.81" fill="white"/>
</clipPath>
</defs>
</svg>
