<svg width="739" height="590" viewBox="0 0 739 590" fill="none" xmlns="http://www.w3.org/2000/svg">
<path d="M522.985 185.72C373.505 -19.6769 329.715 136.551 233.455 195.973C151.768 246.399 16.0545 202.775 97.8723 400.994C179.69 599.213 301.084 570.82 314.669 522.127C328.253 473.435 372.304 396.902 538.118 450.334C703.932 503.766 672.466 391.117 522.985 185.72Z" fill="url(#paint0_linear)"/>
<path d="M342.161 232.398H127.542C125.133 232.398 123.202 230.448 123.202 228.057V77.7765C123.202 75.3666 125.151 73.4349 127.542 73.4349H342.161C344.57 73.4349 346.501 75.385 346.501 77.7765V228.057C346.501 230.467 344.57 232.398 342.161 232.398Z" fill="white"/>
<path d="M123 126.099L347 126.099" stroke="#F3F3F3" stroke-width="1.9597" stroke-miterlimit="10"/>
<path d="M123 176.099L347 176.099" stroke="#F3F3F3" stroke-width="1.9597" stroke-miterlimit="10"/>
<path d="M160.388 117.034C167.853 117.034 173.905 110.981 173.905 103.513C173.905 96.0454 167.853 89.9917 160.388 89.9917C152.923 89.9917 146.871 96.0454 146.871 103.513C146.871 110.981 152.923 117.034 160.388 117.034Z" fill="#7393FF"/>
<path d="M173.562 154.293C175.221 147.012 170.665 139.765 163.386 138.106C156.108 136.446 148.863 141.003 147.204 148.284C145.545 155.565 150.101 162.813 157.379 164.472C164.658 166.132 171.903 161.574 173.562 154.293Z" fill="#7393FF"/>
<path d="M160.388 214.388C167.853 214.388 173.905 208.335 173.905 200.867C173.905 193.399 167.853 187.346 160.388 187.346C152.923 187.346 146.871 193.399 146.871 200.867C146.871 208.335 152.923 214.388 160.388 214.388Z" fill="#7393FF"/>
<path d="M182.071 97.663H302.86" stroke="#F1D5CE" stroke-width="0.9798" stroke-miterlimit="10" stroke-linecap="round" stroke-linejoin="round"/>
<path d="M182.071 107.119H199.983" stroke="#F1D5CE" stroke-width="0.9798" stroke-miterlimit="10" stroke-linecap="round" stroke-linejoin="round"/>
<path d="M182.071 145.935H302.86" stroke="#F1D5CE" stroke-width="0.9798" stroke-miterlimit="10" stroke-linecap="round" stroke-linejoin="round"/>
<path d="M182.071 155.391H246.088" stroke="#F1D5CE" stroke-width="0.9798" stroke-miterlimit="10" stroke-linecap="round" stroke-linejoin="round"/>
<path d="M182.071 196.029H208.461" stroke="#F1D5CE" stroke-width="0.9798" stroke-miterlimit="10" stroke-linecap="round" stroke-linejoin="round"/>
<path d="M182.071 205.484H302.86" stroke="#F1D5CE" stroke-width="0.9798" stroke-miterlimit="10" stroke-linecap="round" stroke-linejoin="round"/>
<path d="M154.963 104.93L158.806 107.542L165.813 99.4843" stroke="white" stroke-width="1.2199" stroke-miterlimit="10" stroke-linecap="round" stroke-linejoin="round"/>
<path d="M154.963 152.595L158.806 155.207L165.813 147.149" stroke="white" stroke-width="1.2199" stroke-miterlimit="10" stroke-linecap="round" stroke-linejoin="round"/>
<path d="M154.963 202.302L158.806 204.914L165.813 196.838" stroke="white" stroke-width="1.2199" stroke-miterlimit="10" stroke-linecap="round" stroke-linejoin="round"/>
<path d="M512.992 127.52C528.318 127.52 540.743 115.092 540.743 99.7602C540.743 84.4287 528.318 72 512.992 72C497.665 72 485.24 84.4287 485.24 99.7602C485.24 115.092 497.665 127.52 512.992 127.52Z" stroke="#F1D5CE" stroke-width="0.9798" stroke-miterlimit="10" stroke-linecap="round" stroke-linejoin="round"/>
<path d="M512.992 87.8945V99.7602H531.713" stroke="#F1D5CE" stroke-width="0.9798" stroke-miterlimit="10" stroke-linecap="round" stroke-linejoin="round"/>
<path d="M564.062 176.584H597.018C601.414 176.584 604.982 173.015 604.982 168.618C604.982 164.221 601.414 160.652 597.018 160.652H564.062C559.667 160.652 556.099 164.221 556.099 168.618C556.099 173.015 559.667 176.584 564.062 176.584Z" fill="#7393FF"/>
<path d="M587.547 168.636C587.547 169.814 588.485 170.77 589.662 170.77C590.839 170.77 591.796 169.832 591.796 168.655C591.796 167.477 590.858 166.521 589.681 166.521C588.504 166.502 587.547 167.459 587.547 168.636Z" fill="white"/>
<path d="M578.426 168.599C578.426 169.777 579.363 170.733 580.54 170.733C581.717 170.733 582.674 169.795 582.674 168.618C582.674 167.44 581.736 166.484 580.559 166.484C579.382 166.484 578.426 167.422 578.426 168.599Z" fill="white"/>
<path d="M569.304 168.581C569.304 169.758 570.242 170.715 571.419 170.715C572.596 170.715 573.552 169.777 573.552 168.6C573.552 167.422 572.614 166.466 571.437 166.466C570.26 166.447 569.304 167.404 569.304 168.581Z" fill="white"/>
<path d="M421.02 311.908H462.564C485.921 311.908 502.251 296.841 506.132 273.809L516.431 212.585" stroke="#1B172C" stroke-width="5.4628" stroke-miterlimit="10" stroke-linecap="round" stroke-linejoin="round"/>
<path d="M421.48 402.032L440.128 315.587C442.316 305.671 451.107 298.589 461.259 298.589C471.576 298.589 480.44 305.855 482.482 315.973L499.401 402.013" stroke="white" stroke-width="1.8791" stroke-miterlimit="10"/>
<path d="M338.06 389.632L347.697 359.039L363.016 358.211L353.398 391.049L338.63 391.159L338.06 389.632Z" fill="#FFBD9A"/>
<path d="M355.549 384.721C355.549 384.721 342.878 389.927 336.92 381.722L310.842 397.58L359.467 397.267L355.549 384.721Z" fill="black"/>
<path d="M359.475 397.246L310.851 397.559L310.879 402.048L359.504 401.735L359.475 397.246Z" fill="white"/>
<path d="M337.232 388.639C337.104 388.584 336.975 388.492 336.883 388.363C334.897 385.751 332.892 384.463 332.874 384.445C332.488 384.187 332.377 383.69 332.635 383.304C332.892 382.936 333.444 382.844 333.83 383.083C333.922 383.138 336.092 384.537 338.281 387.388C338.556 387.756 338.464 388.271 338.097 388.529C337.839 388.731 337.508 388.749 337.232 388.639Z" fill="white"/>
<path d="M333.058 390.736C332.929 390.681 332.8 390.589 332.708 390.46C330.722 387.848 328.717 386.56 328.699 386.542C328.313 386.284 328.202 385.788 328.46 385.401C328.717 385.033 329.269 384.923 329.655 385.181C329.747 385.236 331.917 386.634 334.106 389.485C334.382 389.853 334.29 390.368 333.922 390.626C333.646 390.828 333.315 390.847 333.058 390.736Z" fill="white"/>
<path d="M328.865 392.833C328.736 392.778 328.607 392.686 328.515 392.558C326.529 389.945 324.524 388.657 324.506 388.657C324.12 388.4 324.009 387.903 324.267 387.517C324.524 387.149 325.076 387.039 325.462 387.296C325.554 387.351 327.724 388.749 329.913 391.601C330.189 391.969 330.115 392.484 329.729 392.741C329.453 392.907 329.14 392.944 328.865 392.833Z" fill="white"/>
<path d="M392.036 270.387L378.722 271.233C369.342 271.822 361.361 278.297 358.841 287.348L337.968 367.759L366.878 365.073L390.197 294.449L392.036 270.387Z" fill="#007BDE"/>
<path d="M369.122 371.512H334.216L336.625 358.635H371.549L369.122 371.512Z" fill="#0086FF"/>
<path d="M393.912 389.632L394.354 359.444L409.673 358.635L409.25 391.049L394.482 391.159L393.912 389.632Z" fill="#FFBD9A"/>
<path d="M411.402 384.721C411.402 384.721 398.731 389.927 392.772 381.722L366.694 397.58L415.319 397.267L411.402 384.721Z" fill="black"/>
<path d="M415.329 397.246L366.704 397.559L366.733 402.048L415.358 401.735L415.329 397.246Z" fill="white"/>
<path d="M393.085 388.639C392.956 388.584 392.827 388.492 392.735 388.363C390.749 385.751 388.744 384.463 388.726 384.445C388.34 384.187 388.23 383.69 388.487 383.304C388.744 382.936 389.296 382.844 389.682 383.083C389.774 383.139 391.944 384.537 394.133 387.388C394.409 387.756 394.335 388.271 393.949 388.529C393.673 388.731 393.361 388.749 393.085 388.639Z" fill="white"/>
<path d="M388.91 390.736C388.781 390.681 388.653 390.589 388.561 390.46C386.574 387.848 384.57 386.56 384.551 386.542C384.165 386.284 384.055 385.788 384.312 385.401C384.57 385.033 385.122 384.923 385.508 385.181C385.6 385.236 387.77 386.634 389.958 389.485C390.234 389.853 390.142 390.368 389.774 390.626C389.499 390.828 389.167 390.847 388.91 390.736Z" fill="white"/>
<path d="M384.717 392.833C384.588 392.778 384.459 392.686 384.368 392.558C382.381 389.945 380.377 388.657 380.358 388.657C379.972 388.4 379.862 387.903 380.119 387.517C380.377 387.149 380.928 387.039 381.315 387.296C381.407 387.351 383.577 388.749 385.765 391.601C386.041 391.969 385.968 392.484 385.581 392.741C385.305 392.907 384.993 392.944 384.717 392.833Z" fill="white"/>
<path d="M473.93 268.952L432.275 270.608L401.158 271.252C392.073 271.252 384.68 276.734 384.551 285.803C384.128 313.729 386.299 371.751 387.604 371.494C389.37 371.144 414.878 371.494 414.878 371.494L417.471 308.1L437.443 310.27C442.372 310.307 456.753 311.245 461.148 309.019C470.252 304.42 481.856 293.622 473.93 268.952Z" fill="#0086FF"/>
<path d="M417.875 358.635H382.951V371.512H417.875V358.635Z" fill="#00B1FF"/>
<path d="M417.471 308.1L416.992 293.898" stroke="#55382C" stroke-width="0.8439" stroke-miterlimit="10"/>
<path d="M353.067 219.429L336.331 211.058C336.331 211.058 322.667 210.047 314.373 211.85C313.508 212.034 312.957 212.898 313.159 213.763C313.343 214.535 314.06 215.032 314.851 214.959L322.52 214.112L318.4 216.927C317.278 217.681 317.407 219.374 318.621 219.962C319.136 220.201 319.724 220.202 320.221 219.926C322.52 218.656 329.729 215.345 336.754 219.3L330.207 222.244C328.92 222.832 328.57 224.488 329.527 225.536C329.986 226.033 330.667 226.291 331.329 226.199L337.435 225.408C337.435 225.408 344.607 228.333 351.246 225.15L353.067 219.429Z" fill="#FFC9BD"/>
<path d="M407.724 197.795C402.427 210.783 394.832 236.666 394.832 236.666L352.938 216.927L347.402 231.313L382.951 255.596L421.829 253.977L424.717 223.55L407.724 197.795Z" fill="#FF9184"/>
<path d="M414.712 189.314C411.898 191.429 409.25 194.226 407.724 197.776L405.204 270.368C405.204 270.368 449.746 279.751 473.948 268.934C473.948 268.934 473.268 208.133 459.493 192.037C459.493 192.037 455.153 183.482 433.066 183.445C426.482 183.464 419.953 185.359 414.712 189.314Z" fill="#FF9184"/>
<path d="M410.795 210.783L414.013 261.759" stroke="#FF6C63" stroke-width="0.7349" stroke-miterlimit="10"/>
<path d="M367.724 252.892L367.117 240.382C367.117 240.382 362.63 231.019 358.547 230.89C355.549 230.798 351.761 232.821 349.756 234.955C348.837 235.93 349.094 237.494 350.271 238.083C352.221 239.076 355.182 240.824 356.708 243.013C356.708 243.013 354.722 253.113 358.069 257.27C359.761 259.386 369.765 261.759 369.765 261.759L367.724 252.892Z" fill="#FFC9BD"/>
<path d="M435.751 195.513L427.714 246.416L367.356 249.029V270.387L432.275 268.823C434.758 268.97 436.634 268.179 437.976 266.781L438.638 267.094C438.638 267.094 456.22 267.388 461.167 207.342L435.751 195.513Z" fill="#FF9184"/>
<path d="M372.984 248.79L427.751 246.306L434.261 205.043" stroke="#FF6C63" stroke-width="0.7349" stroke-miterlimit="10"/>
<path d="M427.751 246.306L436.1 248.789" stroke="#FF6C63" stroke-width="0.7349" stroke-miterlimit="10"/>
<path d="M459.935 223.421L453.847 250.592C452.321 257.436 448.606 263.58 443.273 268.142L440.551 270.295" stroke="#FF6C63" stroke-width="0.7349" stroke-miterlimit="10"/>
<path d="M403.825 136.976C403.825 136.976 405.333 144.151 403.825 148.529C402.317 152.907 397.535 154.968 399.687 166.392C401.839 177.816 399.54 178.092 399.025 181.311C399.025 181.311 444.891 185.635 467.861 173.843C467.861 173.843 463.981 167.183 459.677 159.769C455.374 152.374 453.755 140.214 453.755 140.214L436.174 133.481L403.825 136.976Z" fill="#954B55"/>
<path d="M414.712 128.495C414.179 128.33 416.22 125.313 416.753 125.147C424.919 122.535 442.353 119.095 451.217 133.426C457.728 143.967 451.199 163.798 437.498 169.795C424.459 175.517 426.666 132.248 426.666 132.248L414.712 128.495Z" fill="#954B55"/>
<path d="M418.059 155.336C418.482 158.886 415.963 162.106 412.413 162.547C408.864 162.97 405.645 160.45 405.204 156.899C404.781 153.349 407.301 150.13 410.85 149.706C414.399 149.247 417.618 151.785 418.059 155.336Z" fill="#FBBEB4"/>
<path d="M420.284 172.647L421.884 186.665C422.436 191.595 425.765 193.876 430.602 193.306C434.739 192.809 438.362 190.215 438.381 186.039L434.795 164.092L420.284 172.647Z" fill="#FFC9BD"/>
<path d="M421.278 181.312C431.117 180.465 436.174 166.392 436.174 166.392L420.101 171.212L421.278 181.312Z" fill="#1B172C"/>
<path d="M424.68 174.689C416.367 175.13 409.176 168.931 408.588 162.161L407.301 146.174C406.565 137.694 412.689 130.133 421.149 129.121C429.811 128.072 439.19 134.069 440.238 142.734L441.139 155.612C441.82 165.564 435.328 173.879 424.68 174.689Z" fill="#FBBEB4"/>
<path d="M433.434 140.692C429.498 146.579 435.935 154.949 435.935 154.949L448.109 140.232C448.091 140.214 435.769 137.197 433.434 140.692Z" fill="#954B55"/>
<path d="M448.79 153.386C449.213 156.936 446.693 160.156 443.144 160.579C439.595 161.002 436.376 158.482 435.953 154.931C435.53 151.381 438.05 148.161 441.599 147.72C445.13 147.297 448.367 149.835 448.79 153.386Z" fill="#FFC9BD"/>
<path d="M440.349 156.348C440.349 156.348 439.797 151.693 444.339 151.877" stroke="#1B172C" stroke-width="0.5621" stroke-miterlimit="10" stroke-linecap="round" stroke-linejoin="round"/>
<path d="M416.478 159.751L416.349 161.646H418.225" stroke="#1B172C" stroke-width="0.5621" stroke-miterlimit="10" stroke-linecap="round" stroke-linejoin="round"/>
<path d="M425.838 148.088C425.838 148.088 422.234 147.94 422.252 149.099C422.252 149.099 422.289 149.89 425.434 149.964C428.579 150.038 429.388 149.835 429.627 149.099C429.884 148.345 427.512 148.051 425.838 148.088Z" fill="#793641"/>
<path d="M411.457 148.566C411.457 148.566 414.418 148.253 414.694 149.339C414.694 149.339 414.859 150.074 412.284 150.295C409.691 150.534 408.845 150.295 408.57 149.706C408.275 149.026 410.059 148.621 411.457 148.566Z" fill="#793641"/>
<path d="M422.491 155.648C422.491 155.648 424.091 153.349 427.071 155.575" stroke="#1B172C" stroke-width="0.7051" stroke-miterlimit="10" stroke-linecap="round" stroke-linejoin="round"/>
<path d="M410.188 156.108C410.188 156.108 411.622 153.827 413.609 155.961" stroke="#1B172C" stroke-width="0.7051" stroke-miterlimit="10" stroke-linecap="round" stroke-linejoin="round"/>
<path d="M419.457 165.049C419.457 165.049 421.921 165.638 423.907 163.154" stroke="#1B172C" stroke-width="0.7051" stroke-miterlimit="10" stroke-linecap="round" stroke-linejoin="round"/>
<path d="M416.753 125.129C416.753 125.129 399.025 131.531 402.685 138.209C405.406 143.157 423.264 146.23 440.22 142.734C440.22 142.734 447.962 136.443 438.381 129.93C438.381 129.93 433.231 122.664 416.753 125.129Z" fill="#954B55"/>
<path d="M416.992 187.769C416.992 187.769 422.05 184.494 429.498 183.464C429.498 183.464 438.399 182.912 445.847 184.678C445.847 184.678 445.351 192.588 430.381 194.336C427.438 194.686 424.441 194.612 421.59 193.803C418.721 193.012 418.041 191.025 416.992 187.769Z" fill="#FFC9BD"/>
<path d="M366.878 266.855H316.046V261.115H366.878C368.46 261.115 369.747 262.403 369.747 263.985C369.747 265.567 368.46 266.855 366.878 266.855Z" fill="#061418"/>
<path d="M322.74 266.855H249.785C245.904 266.855 242.502 264.261 241.454 260.526L227.054 208.796C226.521 206.901 227.955 205.024 229.923 205.024H303.761C305.38 205.024 306.777 206.11 307.2 207.674L322.74 266.855Z" fill="#1C2E34"/>
<path d="M277.481 237.145C277.481 240.658 274.631 243.51 271.118 243.51C267.605 243.51 264.755 240.658 264.755 237.145C264.755 233.631 267.605 230.779 271.118 230.779C274.631 230.761 277.481 233.612 277.481 237.145Z" fill="white"/>
<path d="M303.89 273.661V402.032" stroke="#55382E" stroke-width="1.1466" stroke-miterlimit="10"/>
<path d="M409.581 266.855H192.774V280.468H409.581V266.855Z" fill="white"/>
<path d="M586.536 402.032H99" stroke="#55382E" stroke-width="1.1466" stroke-miterlimit="10"/>
<defs>
<linearGradient id="paint0_linear" x1="409.5" y1="51" x2="436" y2="668" gradientUnits="userSpaceOnUse">
<stop stop-color="#FFE074"/>
<stop offset="1" stop-color="#FFF7DB"/>
</linearGradient>
</defs>
</svg>
